<svg width="204" height="70" viewBox="0 0 204 70" fill="none" xmlns="http://www.w3.org/2000/svg">
<g clip-path="url(#clip0_1040_3809)">
<path fill-rule="evenodd" clip-rule="evenodd" d="M35.4573 1.02973L35.1125 1.01635L35.0605 1.01487C34.7357 1.00521 34.3819 1 33.9993 1C33.6232 1 33.2739 1.00446 32.9522 1.01412L32.808 1.07134V1.0706L32.6103 1.15012C31.804 1.47784 31.0215 1.839 30.2665 2.23361C29.5048 2.63119 28.7602 3.06593 28.0371 3.53633C27.2367 4.05726 26.4668 4.61536 25.7318 5.20913C25.0006 5.79918 24.3051 6.42416 23.6481 7.08109H23.6489C23.1658 7.56413 22.7118 8.05311 22.2851 8.54655C21.8482 9.05262 21.4321 9.57134 21.0397 10.0997C20.5084 10.8146 20.0164 11.5511 19.5645 12.3031C19.1581 12.9808 18.7828 13.6742 18.4394 14.3802C19.416 14.1565 20.4058 13.9803 21.4053 13.854C22.5906 13.7039 23.7916 13.6229 25.0013 13.6148C25.3335 13.1473 25.688 12.688 26.0648 12.2385C26.4743 11.7495 26.9119 11.2716 27.3757 10.8079L27.3749 10.8072C27.6863 10.4958 28.0088 10.1919 28.3402 9.89683C28.6687 9.60478 29.0047 9.32388 29.3464 9.05412C29.6013 8.85348 29.857 8.661 30.1127 8.47745V8.47893C30.375 8.29092 30.6373 8.11108 30.8982 7.94164L30.8996 7.94016L31.0914 7.8168L31.0929 7.8153C31.5298 7.53811 31.9809 7.27356 32.4447 7.02387C32.8987 6.77937 33.3676 6.54826 33.8492 6.33201L33.9977 6.26512L34.0706 6.23317H34.1494C34.7899 6.23689 35.4202 6.26067 36.0399 6.30451C36.6626 6.34762 37.2899 6.41375 37.9201 6.49922C39.5742 6.72587 41.2128 7.09669 42.8151 7.6102C44.3965 8.1185 45.9415 8.76504 47.43 9.55128C48.2593 9.98899 49.0716 10.4713 49.8645 10.9959C50.6447 11.5124 51.4073 12.0727 52.1474 12.6762C52.5227 12.9816 52.8965 13.3026 53.268 13.6386C53.6485 13.9819 54.0067 14.3215 54.3426 14.6582C54.6785 14.994 55.0189 15.3522 55.3615 15.7327C55.6788 16.0827 55.9827 16.4357 56.2726 16.7902C57.7009 17.5044 59.0764 18.3359 60.385 19.2774C61.7071 20.2287 62.9564 21.2884 64.1171 22.4507C64.7874 23.121 65.4265 23.8262 66.0322 24.5618C66.218 24.7871 66.4 25.0152 66.5784 25.2456C65.8791 22.9003 64.9204 20.6159 63.7054 18.4377C62.2102 15.7602 60.3227 13.2394 58.042 10.9588C55.7605 8.67809 53.2406 6.78978 50.5623 5.29533C47.7941 3.7496 44.8535 2.62078 41.8327 1.90886C40.7819 1.66139 39.7251 1.46446 38.6669 1.31881C37.6005 1.17167 36.5289 1.07506 35.4573 1.02973ZM24.4024 32.0743C24.826 31.4099 25.2867 30.7671 25.7847 30.148C26.2802 29.5312 26.8109 28.939 27.3749 28.3749C27.9389 27.8116 28.5313 27.281 29.1481 26.7846C29.5612 26.4517 29.9864 26.1358 30.4203 25.8363C29.7032 25.629 28.9719 25.4641 28.231 25.3445C27.2471 25.1847 26.2394 25.1029 25.2162 25.1029C24.9597 25.1029 24.7256 25.1066 24.5146 25.1155C24.2931 25.1222 24.0583 25.1371 23.8124 25.1542C23.6444 25.1676 23.4995 25.1802 23.3836 25.1906C23.3003 25.1988 23.2022 25.2099 23.09 25.2226C22.8537 25.4738 22.6233 25.7264 22.4012 25.9806C22.1492 26.2689 21.9002 26.5654 21.6573 26.8686C20.6555 28.1171 19.7808 29.4317 19.0347 30.7946C18.2722 32.1879 17.6398 33.6356 17.1404 35.1174C16.9294 35.7438 16.7428 36.3725 16.5802 37.0042C16.4159 37.6411 16.2755 38.2839 16.158 38.929C16.051 39.5205 15.9626 40.1232 15.8935 40.734C15.8251 41.3441 15.7768 41.9506 15.7493 42.554C15.7404 42.7665 15.7329 42.9723 15.7285 43.1671C15.7248 43.3306 15.7225 43.5371 15.7225 43.7839C15.7225 44.0611 15.7262 44.3033 15.7315 44.5121C15.7374 44.7432 15.7478 44.9855 15.7604 45.2382C15.8243 46.4183 15.964 47.594 16.1803 48.7577C16.3944 49.9117 16.6857 51.0569 17.0535 52.1843C17.2059 52.6547 17.3701 53.1162 17.5454 53.5709C17.7201 54.0206 17.9095 54.4739 18.1147 54.925H18.114L18.2136 55.1457L18.2775 55.2817C19.9272 56.5636 21.7174 57.6322 23.6095 58.469C25.0957 59.1267 26.6429 59.6424 28.2333 60.0081C27.9389 59.7419 27.6529 59.4708 27.3749 59.1935L27.3757 59.1921C26.9119 58.7291 26.4743 58.2505 26.0648 57.7623C25.6464 57.2614 25.2548 56.7509 24.8907 56.2284C24.6171 55.8361 24.3571 55.434 24.111 55.0268C23.8666 54.6218 23.634 54.2049 23.414 53.7798C22.8968 52.7766 22.4613 51.7392 22.1076 50.675C21.7501 49.5997 21.4781 48.5035 21.2939 47.4022V47.4007L21.2731 47.2729V47.2714C21.2091 46.8768 21.1563 46.4837 21.1155 46.0913C21.0739 45.6982 21.0427 45.3021 21.0219 44.903C21.0129 44.7269 21.0062 44.5382 21.0011 44.3427C20.9958 44.122 20.9928 43.9362 20.9928 43.7839L20.9944 43.7824L20.9951 43.5721V43.5691L20.9981 43.3581V43.3574C21.027 41.8956 21.2017 40.4353 21.5227 39.001C21.8401 37.5831 22.3008 36.1913 22.9035 34.8491C23.1205 34.3668 23.3531 33.8935 23.6013 33.4335C23.8466 32.9801 24.114 32.5261 24.4024 32.0743ZM31.0742 44.5976C30.4099 44.174 29.7671 43.7125 29.1481 43.2147C28.5313 42.7197 27.9389 42.1884 27.3749 41.6251L27.3757 41.6236C26.8071 41.0566 26.2765 40.4643 25.7847 39.8534C25.4524 39.4395 25.1359 39.0144 24.8364 38.5805C24.6291 39.2975 24.4649 40.0288 24.3437 40.7705C24.1846 41.7529 24.1029 42.7606 24.1029 43.7839C24.1029 44.0402 24.1066 44.2743 24.1148 44.4846C24.123 44.7068 24.1364 44.9417 24.1542 45.1884H24.1549C24.1675 45.3556 24.1795 45.5005 24.1906 45.6172C24.1987 45.6996 24.2091 45.7985 24.2225 45.91C24.4737 46.1463 24.7272 46.3774 24.9812 46.5996C25.2696 46.8522 25.5654 47.1004 25.8686 47.3428C27.1163 48.3437 28.4309 49.2192 29.7946 49.9653C31.1887 50.7284 32.6356 51.3601 34.1166 51.8595C34.7432 52.0713 35.3733 52.2571 36.0035 52.4199C36.6411 52.5841 37.2832 52.7246 37.9282 52.842C38.5197 52.9497 39.1225 53.0382 39.734 53.1065C40.3434 53.1756 40.9513 53.2239 41.554 53.2499C41.7665 53.2603 41.9724 53.267 42.1678 53.2715C42.3328 53.2744 42.5394 53.2774 42.7838 53.2774C43.0603 53.2774 43.304 53.2744 43.5129 53.2686C43.7433 53.2633 43.9863 53.2529 44.2367 53.2395C45.4168 53.1756 46.5932 53.0366 47.7569 52.8204C48.9103 52.6057 50.0562 52.3136 51.1843 51.9465C51.6539 51.7941 52.1162 51.6299 52.5695 51.4545C53.0206 51.2806 53.4724 51.0904 53.9257 50.8853V50.8868L54.1442 50.7872L54.281 50.7233C55.5629 49.0743 56.6307 47.2833 57.4682 45.3906C58.1267 43.9058 58.6417 42.357 59.0066 40.7675C58.742 41.061 58.4707 41.3479 58.1929 41.6251C57.7343 42.0843 57.2565 42.5213 56.7616 42.936C56.2622 43.3544 55.7501 43.746 55.2277 44.1101L55.2269 44.1087C54.8249 44.3888 54.4251 44.6488 54.0275 44.8882C53.6218 45.1334 53.2057 45.366 52.779 45.5867C51.7765 46.1032 50.7377 46.5387 49.675 46.8924C48.5997 47.2498 47.5043 47.5211 46.4014 47.7069H46.4L46.2729 47.727H46.2714C45.8768 47.7908 45.4815 47.8436 45.0906 47.8852C44.6953 47.9261 44.2984 47.9581 43.9031 47.9782C43.7269 47.987 43.539 47.9944 43.3412 47.999C43.1213 48.0041 42.9355 48.0071 42.7838 48.0071L42.7824 48.0057H42.5721H42.5691L42.3588 48.002H42.3566C40.8948 47.9737 39.4353 47.7983 38.0018 47.4772C36.5832 47.1599 35.1912 46.7 33.8492 46.0972C33.3669 45.8795 32.8935 45.6476 32.4342 45.3994C31.9802 45.1535 31.5253 44.8867 31.0742 44.5976ZM43.5976 37.9257C43.174 38.5893 42.7133 39.2337 42.2154 39.852C41.7197 40.4687 41.1891 41.061 40.6251 41.6251C40.0611 42.1884 39.468 42.7197 38.8512 43.2161C38.4388 43.5483 38.0136 43.8634 37.579 44.1636C38.2968 44.3717 39.0281 44.5352 39.769 44.6564C40.7522 44.8153 41.7606 44.8971 42.7838 44.8971C43.041 44.8971 43.2758 44.8926 43.4876 44.8852C43.7069 44.8763 43.9402 44.8637 44.1876 44.8443H44.1892C44.3527 44.8332 44.4953 44.8213 44.6164 44.8102C44.6997 44.8012 44.7971 44.7908 44.9093 44.7781C45.1463 44.5271 45.3767 44.2729 45.5988 44.0187C45.8509 43.7296 46.0991 43.4339 46.3427 43.1307C47.3445 41.8837 48.2192 40.569 48.9653 39.2046C49.7285 37.8112 50.3602 36.3637 50.8596 34.8819C51.0706 34.2561 51.2579 33.6267 51.4191 32.9965C51.5841 32.3596 51.7253 31.7161 51.842 31.0718C51.949 30.4795 52.0381 29.8776 52.1058 29.2667C52.1749 28.6566 52.2232 28.0494 52.2507 27.446C52.2678 27.0529 52.2775 26.6419 52.2775 26.2161C52.2775 25.9389 52.2738 25.6959 52.2685 25.4879C52.2618 25.256 52.2529 25.0145 52.2388 24.7625C52.1757 23.5824 52.0367 22.4068 51.8204 21.2438C51.6049 20.0897 51.3143 18.9438 50.9465 17.8149C50.7941 17.346 50.6292 16.8831 50.4546 16.4298C50.2792 15.9794 50.0896 15.5275 49.886 15.075L49.8868 15.0743L49.7857 14.8551L49.7225 14.7191C48.0735 13.4372 46.2818 12.3692 44.3905 11.5317C42.9043 10.8741 41.3564 10.3583 39.7667 9.99343C40.0602 10.258 40.3472 10.5292 40.6251 10.8072C41.0835 11.2657 41.5206 11.7435 41.9352 12.2385C42.3536 12.7379 42.7459 13.2506 43.1094 13.7723L43.1086 13.773C43.3888 14.1743 43.6482 14.5749 43.8882 14.9725C44.1327 15.3782 44.3653 15.7951 44.5852 16.2209C45.1024 17.2234 45.5387 18.2615 45.8924 19.325C46.2492 20.4004 46.5219 21.4957 46.7061 22.5985V22.6L46.7269 22.7278V22.7293C46.7902 23.1232 46.8429 23.517 46.8846 23.9095C46.9269 24.3025 46.9581 24.6987 46.9781 25.0962C46.9871 25.2738 46.9938 25.4604 46.9989 25.6573C47.0042 25.8772 47.0072 26.063 47.0072 26.2161C47.0072 26.3083 47.0056 26.4532 47.0019 26.6426C46.973 28.1052 46.7983 29.5654 46.4773 30.9983C46.1592 32.4169 45.6992 33.8095 45.0966 35.1509C44.8795 35.6339 44.6469 36.1058 44.3987 36.5658C44.1535 37.0199 43.886 37.4746 43.5976 37.9257ZM36.9265 25.4024C37.5894 25.8267 38.2329 26.2875 38.8519 26.7853C39.4687 27.281 40.0611 27.8116 40.6251 28.3749C41.1891 28.939 41.7197 29.5312 42.2154 30.148C42.5476 30.562 42.8641 30.9863 43.1636 31.4203C43.3709 30.7032 43.536 29.972 43.6556 29.2318C43.8154 28.2471 43.8964 27.2394 43.8964 26.2161C43.8964 25.9582 43.8934 25.7241 43.8852 25.5131C43.877 25.2939 43.8637 25.0598 43.8451 24.8116V24.8101C43.8332 24.6481 43.8213 24.5047 43.8094 24.3835C43.802 24.3011 43.7909 24.2022 43.7775 24.0908C43.5263 23.8537 43.2728 23.6241 43.0188 23.4011C42.7304 23.1485 42.4346 22.9003 42.1306 22.6572C40.8829 21.6555 39.5684 20.7816 38.2047 20.0347C36.8113 19.2723 35.3637 18.6406 33.8825 18.1405C33.2561 17.9294 32.6267 17.7429 31.9965 17.5801C31.3589 17.4159 30.7168 17.2754 30.071 17.158C29.4803 17.051 28.8775 16.9625 28.266 16.8942C27.6558 16.8251 27.0486 16.7768 26.446 16.7501C26.2327 16.7404 26.0269 16.733 25.8314 16.7285C25.6687 16.7256 25.4628 16.7233 25.2162 16.7233C24.7189 16.7233 24.2337 16.7359 23.7625 16.7612C22.5825 16.8244 21.4061 16.9634 20.2423 17.1803C19.0889 17.3943 17.9438 17.6864 16.8157 18.0535C16.3461 18.2058 15.8838 18.37 15.4305 18.5455C14.9794 18.7209 14.5269 18.9103 14.075 19.1139H14.0742L13.855 19.2143L13.7191 19.2774C12.4371 20.9272 11.3685 22.7182 10.531 24.6102C9.87332 26.0958 9.35758 27.643 8.9927 29.2332C9.25057 28.9471 9.52256 28.661 9.80718 28.3764L9.80867 28.3749C10.2724 27.9113 10.7495 27.4742 11.2377 27.0655C11.7378 26.6464 12.2499 26.2547 12.7723 25.8906C13.164 25.6172 13.5652 25.3578 13.9732 25.1118C14.3782 24.8673 14.7952 24.6347 15.221 24.414C16.2235 23.8975 17.2616 23.4613 18.3242 23.1076C19.4003 22.7509 20.4957 22.4789 21.5986 22.2938H21.6L21.7271 22.273H21.7279C22.1232 22.2092 22.5163 22.1571 22.9087 22.1162V22.1155C23.3026 22.0739 23.6986 22.0427 24.0962 22.0226C24.2731 22.0137 24.4611 22.0063 24.658 22.001C24.8787 21.9959 25.0638 21.9929 25.2162 21.9929C25.3157 21.9929 25.4547 21.9943 25.6434 21.998C27.1052 22.0263 28.5655 22.2025 29.9982 22.5228C31.4168 22.84 32.8095 23.3008 34.1508 23.9035C34.6339 24.1212 35.1058 24.3531 35.5658 24.6013C36.0206 24.8465 36.4739 25.1141 36.9265 25.4024ZM11.6762 16.8526C11.9816 16.4781 12.3026 16.1035 12.6385 15.7312C12.9811 15.3515 13.3215 14.9932 13.6574 14.6573C13.9925 14.3222 14.3515 13.9819 14.7312 13.6386C15.082 13.322 15.4357 13.018 15.7894 12.7275C16.5036 11.2991 17.3352 9.92359 18.2768 8.61492C19.2286 7.29289 20.2884 6.04367 21.4499 4.88214L21.4506 4.88289C22.1217 4.21258 22.827 3.57274 23.5619 2.96783C23.7878 2.78205 24.0159 2.59997 24.2456 2.42163C21.8995 3.12091 19.6151 4.07956 17.437 5.29533C14.7602 6.78978 12.2395 8.67809 9.95803 10.958C7.6781 13.2387 5.78978 15.7602 4.29459 18.4377C2.74961 21.2058 1.62078 24.1473 0.908856 27.1674C0.661392 28.2181 0.464462 29.2749 0.318807 30.3331C0.171665 31.4003 0.0750575 32.4711 0.0297262 33.5427L0.0163485 33.8875L0.014863 33.9403C0.00445916 34.2643 0 34.6187 0 34.9992C0 35.3767 0.00445957 35.7268 0.0141203 36.0479L0.0705989 36.1913L0.0698562 36.1927L0.14937 36.3904H0.150113C0.477094 37.1959 0.839001 37.9777 1.23286 38.7343C1.63044 39.496 2.06592 40.2391 2.53559 40.9636C3.05653 41.7633 3.61536 42.5339 4.20913 43.2681C4.79472 43.9942 5.42044 44.6905 6.0811 45.3512H6.08034C6.55595 45.8275 7.04643 46.283 7.54582 46.7141C8.05263 47.1525 8.57135 47.5679 9.09972 47.9611C9.81461 48.4924 10.5496 48.9844 11.3023 49.4354C11.9802 49.8419 12.6734 50.2179 13.3801 50.5605C13.1557 49.5848 12.9797 48.5949 12.8533 47.5954C12.7039 46.4094 12.623 45.2092 12.6147 43.9986C12.1473 43.6664 11.6873 43.312 11.2384 42.9345C10.7495 42.5265 10.2724 42.088 9.80867 41.6251L9.80718 41.6236C9.48763 41.3048 9.18369 40.9822 8.89683 40.6604C8.60478 40.332 8.32314 39.9954 8.05412 39.6528C7.85347 39.3986 7.661 39.1437 7.47744 38.8881C7.29983 38.6399 7.12073 38.3783 6.9409 38.1011L6.93941 38.0996L6.81605 37.9079L6.81531 37.9072C6.53738 37.4702 6.27357 37.0199 6.02461 36.5568C5.77938 36.1028 5.54751 35.6325 5.33126 35.1509L5.26513 35.0022L5.23317 34.9301V34.8498C5.23614 34.2107 5.25992 33.5799 5.30377 32.9601C5.34761 32.3373 5.41301 31.7109 5.49921 31.0792C5.72587 29.425 6.09669 27.7857 6.61021 26.1842C7.11777 24.6028 7.76503 23.0585 8.55128 21.5701C8.98824 20.7407 9.47053 19.9285 9.9952 19.1355C10.5124 18.3552 11.0728 17.5935 11.6762 16.8526ZM62.668 34.8491L62.7348 34.9978L62.7669 35.0706V35.1509C62.7631 35.7907 62.7401 36.4217 62.6955 37.0414C62.6524 37.6641 62.587 38.2914 62.5008 38.92C62.2741 40.5743 61.9033 42.2129 61.3898 43.8158C60.8823 45.3965 60.2349 46.9422 59.4487 48.4315C59.011 49.2601 58.5287 50.0731 58.0041 50.8652C57.4876 51.6462 56.9272 52.4079 56.3239 53.1481C56.0184 53.5226 55.6974 53.8957 55.3622 54.2673H55.3637C55.0293 54.6374 54.6889 54.9963 54.3426 55.3427H54.3412C53.9956 55.6882 53.6381 56.0278 53.268 56.3622V56.363C52.927 56.6713 52.574 56.9746 52.2098 57.2732C51.4957 58.7015 50.6641 60.0779 49.7225 61.3851C48.7714 62.7079 47.7116 63.9556 46.5501 65.1186C45.885 65.7829 45.179 66.422 44.4381 67.0314C44.2122 67.2172 43.9848 67.4 43.7544 67.5783C46.0998 66.8791 48.3849 65.9212 50.5623 64.7046C53.2398 63.211 55.7605 61.3226 58.042 59.0427C60.3219 56.7613 62.2102 54.2398 63.7047 51.563C65.2504 48.7941 66.3792 45.8535 67.0912 42.8326C67.3386 41.7818 67.5355 40.7259 67.6812 39.6676C67.8283 38.6004 67.925 37.5297 67.9703 36.458L67.9836 36.1125L67.9852 36.062V36.0604C67.9949 35.7357 68 35.3813 68 34.9992C68 34.624 67.9956 34.274 67.9852 33.9514L67.9287 33.808H67.9294L67.8506 33.6104H67.8499C67.5229 32.8048 67.161 32.0223 66.7671 31.2664C66.3695 30.5047 65.934 29.7609 65.4637 29.0371C64.9435 28.2375 64.3847 27.4668 63.7916 26.7319C63.2046 26.0058 62.5796 25.3095 61.9181 24.6496C61.4358 24.1658 60.9461 23.711 60.4527 23.2852C59.9466 22.8482 59.4287 22.4321 58.9003 22.0397C58.1854 21.5091 57.4497 21.0171 56.6969 20.5653C56.0191 20.158 55.3251 19.7828 54.619 19.4395C54.8435 20.4152 55.0196 21.4058 55.1459 22.4053C55.2961 23.5914 55.377 24.793 55.3846 26.0028C55.8586 26.3387 56.3179 26.694 56.7623 27.0663C57.2565 27.4795 57.7351 27.9164 58.1929 28.3749C58.5049 28.6864 58.8089 29.0088 59.104 29.341C59.3959 29.6695 59.6769 30.0053 59.9459 30.3465C60.1472 30.6014 60.3397 30.8585 60.5233 31.1142L60.5226 31.1156C60.7098 31.3765 60.889 31.6381 61.0583 31.8988L61.0599 31.9004L61.1832 32.0921L61.1846 32.0936C61.4619 32.5291 61.7265 32.9809 61.9754 33.4439C62.2206 33.8979 62.4517 34.3668 62.668 34.8491ZM34.1508 63.6687L34.0023 63.7349L33.9294 63.7668H33.8499C33.2101 63.7638 32.5784 63.7393 31.9586 63.6963C31.3358 63.6524 30.7094 63.5869 30.0792 63.5001C28.4258 63.2749 26.7872 62.9033 25.1849 62.3898C23.6035 61.8829 22.0578 61.2357 20.5693 60.4495C19.7407 60.0125 18.9277 59.5302 18.1355 59.0048C17.3552 58.4883 16.5927 57.928 15.8526 57.3238C15.4773 57.0192 15.1028 56.6974 14.7312 56.3622C14.3619 56.0278 14.0037 55.6882 13.6588 55.3427H13.6574C13.3215 55.006 12.9811 54.6478 12.6378 54.2673H12.6363C12.3286 53.9276 12.0255 53.5739 11.7267 53.2106C10.2991 52.4949 8.92285 51.6648 7.61493 50.7233C6.29288 49.772 5.04367 48.7116 3.88215 47.5501C3.2163 46.8857 2.57794 46.1782 1.96857 45.438C1.78278 45.2122 1.59998 44.984 1.42162 44.7544C2.12091 47.1004 3.07882 49.3849 4.29459 51.563C5.78978 54.2398 7.67734 56.7613 9.95803 59.0427C12.2388 61.3226 14.7594 63.2094 17.437 64.7046C20.2059 66.2504 23.1472 67.38 26.1673 68.0911C27.2181 68.3393 28.2749 68.5363 29.3323 68.6819C30.3995 68.8283 31.4711 68.9257 32.5427 68.9703L32.8875 68.9837L32.9381 68.9851C33.2635 68.9955 33.6181 69.0008 33.9993 69.0008C34.3761 69.0008 34.7268 68.9955 35.0478 68.9866L35.1928 68.9301L35.389 68.8498C36.1953 68.5236 36.9785 68.1602 37.7335 67.7671C38.4952 67.3696 39.2398 66.9341 39.9622 66.4636C40.7633 65.9442 41.5332 65.3853 42.2682 64.7916C42.995 64.2052 43.6898 63.5795 44.3511 62.9196C44.8334 62.4359 45.2882 61.9469 45.714 61.4534C46.1518 60.9481 46.5672 60.4286 46.9603 59.9003C47.4916 59.1847 47.9836 58.4489 48.4355 57.6969C48.8419 57.0192 49.2173 56.3258 49.5613 55.6198C48.584 55.8435 47.5942 56.0196 46.5947 56.1467C45.4094 56.2968 44.2077 56.3764 42.9979 56.3852C42.6657 56.8527 42.312 57.3127 41.9352 57.7623C41.5257 58.2505 41.0881 58.7291 40.6243 59.1921L40.6251 59.1935C40.3137 59.5042 39.9912 59.8089 39.6589 60.1039C39.3313 60.3952 38.9953 60.6768 38.6536 60.9466C38.412 61.1353 38.1556 61.3286 37.8859 61.5232V61.5248C37.6391 61.7017 37.3768 61.88 37.1018 62.0591L37.1004 62.0598L36.9079 62.184L36.9064 62.1847C36.4701 62.4626 36.0191 62.7264 35.5569 62.9762C35.1021 63.2214 34.6331 63.4525 34.1508 63.6687Z" fill="#00ADFF"/>
</g>
<path d="M183.571 9.60254C184.257 9.60254 184.8 9.72841 185.202 9.98015C185.603 10.2151 185.803 10.5172 185.803 10.8864C185.803 11.2556 185.686 11.5493 185.452 11.7675C185.218 11.9857 184.926 12.0948 184.575 12.0948C184.106 12.0948 183.789 11.9857 183.622 11.7675C183.471 11.5493 183.371 11.2556 183.321 10.8864C183.271 10.6347 183.212 10.4501 183.145 10.3326C183.078 10.1983 182.953 10.1312 182.769 10.1312C182.234 10.1312 181.774 10.6766 181.39 11.7675C181.022 12.8416 180.671 14.5282 180.336 16.8275L180.111 18.3127C180.779 18.2792 181.256 18.2455 181.54 18.212L182.493 18.1617C182.56 18.1617 182.61 18.1952 182.644 18.2624C182.677 18.3296 182.685 18.3966 182.669 18.4638C182.618 18.6317 182.51 18.8245 182.343 19.0428C182.175 19.2442 182.017 19.3449 181.866 19.3449C181.833 19.3449 181.632 19.3197 181.264 19.2693C180.896 19.2021 180.478 19.1435 180.01 19.0931L178.631 28.4075C178.397 30.0355 178.104 31.3108 177.753 32.2339C177.419 33.157 177.001 33.8115 176.499 34.1975C175.998 34.6003 175.354 34.8017 174.568 34.8017C173.883 34.8017 173.339 34.6758 172.938 34.424C172.537 34.1892 172.336 33.8871 172.336 33.5178C172.336 33.1485 172.453 32.8633 172.687 32.6619C172.905 32.4605 173.172 32.3598 173.49 32.3598C173.891 32.3598 174.167 32.4605 174.317 32.6619C174.451 32.8633 174.551 33.157 174.618 33.543C174.669 33.8115 174.727 34.0044 174.794 34.122C174.844 34.2395 174.953 34.2982 175.12 34.2982C175.287 34.2982 175.421 34.164 175.521 33.8954C175.638 33.6437 175.755 33.1822 175.872 32.5108C176.006 31.8395 176.19 30.69 176.424 29.062L177.703 20.1756C177.736 19.9911 177.753 19.7728 177.753 19.5211C177.753 19.219 177.67 19.0344 177.502 18.9672C177.335 18.8834 176.993 18.8414 176.474 18.8414C176.424 18.8414 176.399 18.7827 176.399 18.6652C176.399 18.5141 176.424 18.4386 176.474 18.4386C177.026 18.4386 177.419 18.3631 177.653 18.212C177.887 18.061 178.037 17.7757 178.104 17.3561C178.439 15.2919 178.823 13.7143 179.258 12.6234C179.709 11.5158 180.269 10.7354 180.938 10.2822C181.607 9.82911 182.485 9.60254 183.571 9.60254ZM185.574 28.2313C184.471 28.2313 183.626 27.8788 183.041 27.174C182.473 26.4522 182.189 25.5208 182.189 24.3796C182.189 23.8762 182.23 23.423 182.314 23.0203C182.498 22.0133 182.857 21.1154 183.392 20.3266C183.944 19.5379 184.605 18.9252 185.374 18.4889C186.143 18.0527 186.97 17.8344 187.856 17.8344C188.977 17.8344 189.829 18.1785 190.415 18.8665C191.016 19.5379 191.317 20.4442 191.317 21.5853C191.317 22.0385 191.267 22.5168 191.167 23.0203C190.949 24.1279 190.548 25.0762 189.963 25.8649C189.395 26.637 188.717 27.2243 187.932 27.6271C187.163 28.0299 186.377 28.2313 185.574 28.2313ZM186.427 27.6019C186.962 27.6019 187.422 27.2915 187.806 26.6705C188.208 26.0495 188.5 25.2021 188.684 24.1279C188.801 23.4734 188.86 22.8105 188.86 22.1392C188.86 21.0484 188.692 20.1587 188.358 19.4707C188.04 18.7827 187.597 18.4386 187.029 18.4386C186.527 18.4386 186.076 18.7324 185.675 19.3197C185.29 19.907 184.998 20.7798 184.797 21.9378C184.68 22.5923 184.621 23.2551 184.621 23.9265C184.621 25.0173 184.78 25.9069 185.098 26.5949C185.415 27.2663 185.858 27.6019 186.427 27.6019ZM199.047 17.9351C199.481 17.9351 199.891 18.0945 200.276 18.4134C200.677 18.7324 200.844 19.0931 200.777 19.4959C200.744 19.7476 200.627 19.9825 200.426 20.2008C200.225 20.419 199.975 20.528 199.674 20.528C199.373 20.528 199.047 20.3853 198.696 20.1001C198.578 20.0162 198.462 19.9407 198.344 19.8735C198.227 19.8063 198.11 19.7728 197.993 19.7728C197.709 19.7728 197.358 20.2176 196.94 21.107C196.522 21.9964 196.121 23.0623 195.736 24.3041C195.368 25.5293 195.101 26.6118 194.934 27.5516V27.5767C194.9 27.7278 194.766 27.8453 194.532 27.9292C194.298 28.0299 193.964 28.0802 193.529 28.0802C192.978 28.0802 192.702 28.013 192.702 27.8788C192.718 27.7613 192.769 27.5095 192.852 27.1236C192.953 26.7377 193.036 26.3684 193.103 26.0159L194.131 20.4022C194.165 20.1336 194.181 19.9574 194.181 19.8735C194.181 19.4035 194.031 19.1686 193.73 19.1686C193.396 19.1686 192.919 19.5042 192.3 20.1756C192.284 20.1924 192.259 20.2008 192.225 20.2008C192.158 20.2008 192.108 20.1756 192.075 20.1252C192.041 20.0581 192.05 19.9994 192.1 19.949C192.702 19.2442 193.237 18.7324 193.705 18.4134C194.19 18.0945 194.675 17.9351 195.159 17.9351C195.577 17.9351 195.878 18.0527 196.062 18.2875C196.246 18.5058 196.338 18.833 196.338 19.2693C196.338 19.5211 196.313 19.798 196.263 20.1001L195.761 22.8692C196.748 19.5797 197.843 17.9351 199.047 17.9351Z" fill="#101828"/>
<path d="M92.0072 5.54785C93.0403 5.54785 94.1204 5.64213 95.2474 5.83067C96.3743 5.99565 97.2548 6.21955 97.8888 6.50237C98.1001 6.57308 98.2292 6.66735 98.2762 6.78519C98.3466 6.87947 98.4053 7.05623 98.4523 7.31548L98.8749 12.2295C98.8749 12.3002 98.8162 12.3473 98.6988 12.3709C98.5814 12.3945 98.511 12.3591 98.4875 12.2649C97.6892 10.4029 96.621 8.96527 95.2826 7.95183C93.9443 6.93839 92.3946 6.43167 90.6337 6.43167C88.3092 6.43167 86.5131 7.29191 85.2452 9.01241C83.9773 10.7329 83.3434 13.0426 83.3434 15.9415C83.3434 18.1099 83.6838 20.0896 84.3647 21.8808C85.0691 23.6721 86.0435 25.0979 87.2879 26.1585C88.5558 27.1954 89.988 27.714 91.5846 27.714C93.0873 27.714 94.4256 27.219 95.5996 26.2291C96.7971 25.2157 97.8653 23.6838 98.8045 21.6332C98.828 21.539 98.8984 21.5037 99.0158 21.5273C99.1567 21.5509 99.227 21.5979 99.227 21.6688L98.6988 26.4767C98.6519 26.7594 98.5932 26.948 98.5227 27.0423C98.4758 27.1129 98.3466 27.1954 98.1353 27.2897C96.0457 28.0675 93.8973 28.4564 91.6903 28.4564C88.8258 28.4564 86.4309 27.8908 84.5056 26.7594C82.5803 25.6046 81.1598 24.1551 80.2441 22.4111C79.3519 20.6435 78.9058 18.805 78.9058 16.896C78.9058 14.657 79.5045 12.6773 80.7019 10.9568C81.9229 9.23631 83.5312 7.90469 85.5269 6.96196C87.5462 6.01922 89.7063 5.54785 92.0072 5.54785ZM113.7 25.6988C113.747 25.6988 113.794 25.746 113.841 25.8402C113.912 25.9345 113.923 26.0053 113.876 26.0523C113.008 26.9008 112.127 27.5136 111.235 27.8908C110.343 28.2679 109.368 28.4564 108.312 28.4564C106.833 28.4564 105.553 28.1501 104.473 27.5372C103.393 26.9008 102.571 26.0642 102.008 25.0273C101.444 23.9667 101.162 22.8353 101.162 21.6332C101.162 20.2664 101.514 19.0054 102.219 17.8506C102.923 16.6721 103.886 15.753 105.107 15.0931C106.328 14.4096 107.689 14.0678 109.192 14.0678C110.648 14.0678 111.763 14.386 112.538 15.0224C113.313 15.6351 113.7 16.4836 113.7 17.5677C113.7 18.2513 113.571 18.593 113.313 18.593H111.165L104.825 18.6638C104.755 19.1115 104.719 19.6065 104.719 20.1485C104.719 22.1754 105.189 23.778 106.128 24.9564C107.091 26.1348 108.406 26.7241 110.073 26.7241C110.66 26.7241 111.27 26.6415 111.904 26.4767C112.538 26.3116 113.113 26.0642 113.63 25.7343L113.7 25.6988ZM107.889 14.7749C107.185 14.7749 106.574 15.0577 106.058 15.6234C105.541 16.189 105.165 16.9668 104.931 17.9567L109.932 17.8506C109.861 15.8001 109.18 14.7749 107.889 14.7749ZM131.978 27.6079C132.048 27.6079 132.084 27.6787 132.084 27.82C132.084 27.9614 132.048 28.0322 131.978 28.0322C131.367 28.0322 130.886 28.0203 130.534 27.9967L128.421 27.9614L126.378 27.9967C126.002 28.0203 125.509 28.0322 124.899 28.0322C124.828 28.0322 124.793 27.9614 124.793 27.82C124.793 27.6787 124.828 27.6079 124.899 27.6079C125.627 27.6079 126.12 27.443 126.378 27.1129C126.636 26.7594 126.765 26.1112 126.765 25.1685V20.0779C126.765 18.805 126.531 17.8623 126.061 17.2497C125.615 16.6368 124.899 16.3304 123.913 16.3304C123.349 16.3304 122.762 16.4482 122.152 16.6839C121.565 16.9196 121.048 17.2378 120.602 17.6385V25.1685C120.602 26.1112 120.731 26.7594 120.99 27.1129C121.271 27.443 121.776 27.6079 122.504 27.6079C122.574 27.6079 122.61 27.6787 122.61 27.82C122.61 27.9614 122.574 28.0322 122.504 28.0322C121.894 28.0322 121.412 28.0203 121.06 27.9967L118.947 27.9614L116.869 27.9967C116.517 28.0203 116.035 28.0322 115.425 28.0322C115.354 28.0322 115.319 27.9614 115.319 27.82C115.319 27.6787 115.354 27.6079 115.425 27.6079C116.153 27.6079 116.646 27.443 116.904 27.1129C117.162 26.7594 117.292 26.1112 117.292 25.1685V18.5223C117.292 17.7917 117.198 17.2614 117.01 16.9314C116.845 16.5779 116.575 16.4011 116.2 16.4011C115.801 16.4011 115.237 16.5661 114.509 16.896H114.439C114.368 16.896 114.31 16.8371 114.263 16.7193C114.239 16.6014 114.251 16.5307 114.298 16.5072L119.193 14.1032C119.334 14.0561 119.416 14.0325 119.44 14.0325C119.698 14.0325 119.945 14.2917 120.179 14.8102C120.414 15.3052 120.555 15.9887 120.602 16.8607C122.222 14.9281 124.007 13.9618 125.955 13.9618C127.223 13.9618 128.221 14.3742 128.949 15.1991C129.7 16.0004 130.076 17.061 130.076 18.3809V25.1685C130.076 26.1112 130.205 26.7594 130.463 27.1129C130.745 27.443 131.25 27.6079 131.978 27.6079ZM143.296 25.5575C143.39 25.5575 143.46 25.6046 143.507 25.6988C143.578 25.7932 143.578 25.8638 143.507 25.9111C142.639 26.783 141.793 27.4311 140.972 27.8555C140.15 28.256 139.281 28.4564 138.365 28.4564C137.332 28.4564 136.452 28.209 135.724 27.714C134.996 27.219 134.632 26.3824 134.632 25.204V17.3556C134.632 16.625 134.503 16.1183 134.245 15.8355C133.987 15.5526 133.517 15.4112 132.836 15.4112C132.813 15.4112 132.777 15.3759 132.73 15.3052C132.707 15.2345 132.695 15.1638 132.695 15.0931C132.695 14.9988 132.707 14.9281 132.73 14.8809C132.754 14.8102 132.789 14.7749 132.836 14.7749C134.033 14.7278 134.996 14.4685 135.724 13.9971C136.475 13.5258 137.051 12.8069 137.45 11.8406C137.497 11.7463 137.59 11.6992 137.731 11.6992C137.896 11.6992 137.978 11.7463 137.978 11.8406V14.6688C139.34 14.6453 140.866 14.5392 142.557 14.3507C142.603 14.3507 142.65 14.4449 142.697 14.6335C142.768 14.7985 142.803 14.987 142.803 15.1991C142.803 15.4348 142.756 15.6705 142.662 15.9062C142.592 16.1183 142.509 16.2126 142.416 16.189C140.889 15.859 139.41 15.6823 137.978 15.6587V24.0373C137.978 24.9328 138.201 25.5929 138.647 26.017C139.117 26.4414 139.727 26.6534 140.479 26.6534C141.418 26.6534 142.333 26.2999 143.226 25.5929L143.296 25.5575ZM156.677 25.6988C156.724 25.6988 156.771 25.746 156.818 25.8402C156.888 25.9345 156.9 26.0053 156.853 26.0523C155.984 26.9008 155.104 27.5136 154.212 27.8908C153.319 28.2679 152.345 28.4564 151.289 28.4564C149.809 28.4564 148.53 28.1501 147.45 27.5372C146.37 26.9008 145.548 26.0642 144.984 25.0273C144.421 23.9667 144.139 22.8353 144.139 21.6332C144.139 20.2664 144.491 19.0054 145.196 17.8506C145.9 16.6721 146.863 15.753 148.084 15.0931C149.304 14.4096 150.666 14.0678 152.169 14.0678C153.625 14.0678 154.74 14.386 155.515 15.0224C156.29 15.6351 156.677 16.4836 156.677 17.5677C156.677 18.2513 156.548 18.593 156.29 18.593H154.141L147.802 18.6638C147.731 19.1115 147.696 19.6065 147.696 20.1485C147.696 22.1754 148.166 23.778 149.105 24.9564C150.068 26.1348 151.382 26.7241 153.05 26.7241C153.636 26.7241 154.247 26.6415 154.881 26.4767C155.515 26.3116 156.09 26.0642 156.607 25.7343L156.677 25.6988ZM150.866 14.7749C150.162 14.7749 149.551 15.0577 149.034 15.6234C148.518 16.189 148.142 16.9668 147.908 17.9567L152.909 17.8506C152.838 15.8001 152.157 14.7749 150.866 14.7749ZM167.7 14.0325C168.24 14.0325 168.756 14.2328 169.25 14.6335C169.766 15.0106 170.024 15.4702 170.024 16.0122C170.024 16.5072 169.872 16.9196 169.566 17.2497C169.261 17.556 168.862 17.7091 168.369 17.7091C168.017 17.7091 167.723 17.6385 167.489 17.4971C167.277 17.3556 167.054 17.1435 166.819 16.8607C166.608 16.625 166.42 16.46 166.256 16.3658C166.115 16.2479 165.939 16.189 165.728 16.189C165.493 16.189 165.234 16.2833 164.953 16.4718C164.694 16.6368 164.283 17.0021 163.72 17.5677V25.1685C163.72 26.1112 163.943 26.7594 164.389 27.1129C164.835 27.443 165.657 27.6079 166.855 27.6079C166.948 27.6079 166.995 27.6787 166.995 27.82C166.995 27.9614 166.948 28.0322 166.855 28.0322C166.033 28.0322 165.387 28.0203 164.917 27.9967L162.065 27.9614L159.987 27.9967C159.635 28.0203 159.153 28.0322 158.543 28.0322C158.472 28.0322 158.437 27.9614 158.437 27.82C158.437 27.6787 158.472 27.6079 158.543 27.6079C159.271 27.6079 159.764 27.443 160.022 27.1129C160.28 26.7594 160.409 26.1112 160.409 25.1685V18.5223C160.409 17.7917 160.316 17.2614 160.128 16.9314C159.963 16.5779 159.693 16.4011 159.318 16.4011C158.919 16.4011 158.355 16.5661 157.627 16.896H157.557C157.486 16.896 157.428 16.8371 157.381 16.7193C157.357 16.6014 157.369 16.5307 157.416 16.5072L162.311 14.1032C162.452 14.0561 162.534 14.0325 162.558 14.0325C162.816 14.0325 163.051 14.28 163.262 14.7749C163.497 15.2463 163.638 15.8944 163.685 16.7193C164.648 15.7294 165.434 15.0341 166.044 14.6335C166.678 14.2328 167.23 14.0325 167.7 14.0325Z" fill="#101828"/>
<path d="M101.442 59.6428C101.56 59.6428 101.618 59.7136 101.618 59.8549C101.618 59.9963 101.56 60.067 101.442 60.067C100.973 60.067 100.245 60.0436 99.2586 59.9963C98.2258 59.9491 97.4862 59.9257 97.0402 59.9257C96.4532 59.9257 95.7371 59.9491 94.892 59.9963C94.0938 60.0436 93.4599 60.067 92.9904 60.067C92.8965 60.067 92.8495 59.9963 92.8495 59.8549C92.8495 59.7136 92.8965 59.6428 92.9904 59.6428C93.6008 59.6428 94.0351 59.5839 94.2933 59.4661C94.5751 59.3248 94.7159 59.0891 94.7159 58.7592C94.7159 58.3584 94.4812 57.6869 94.0116 56.7442L90.3492 49.4977H84.0809L81.5806 55.0476C81.2754 55.7308 81.1228 56.3672 81.1228 56.9563C81.1228 57.8048 81.4162 58.4646 82.0032 58.936C82.6136 59.4071 83.4235 59.6428 84.433 59.6428C84.5504 59.6428 84.6091 59.7136 84.6091 59.8549C84.6091 59.9963 84.5504 60.067 84.433 60.067C84.0104 60.067 83.4 60.0436 82.6018 59.9963C81.7097 59.9491 80.935 59.9257 80.2776 59.9257C79.6437 59.9257 78.8807 59.9491 77.9886 59.9963C77.1904 60.0436 76.5448 60.067 76.0517 60.067C75.9578 60.067 75.9109 59.9963 75.9109 59.8549C75.9109 59.7136 75.9578 59.6428 76.0517 59.6428C76.7091 59.6428 77.2608 59.5133 77.7069 59.254C78.1529 58.9713 78.599 58.4882 79.0451 57.8048C79.4911 57.0977 80.0194 56.0607 80.6298 54.694L88.2715 37.8325C88.3185 37.7619 88.4241 37.7264 88.5885 37.7264C88.7763 37.7264 88.8819 37.7619 88.9054 37.8325L97.7092 55.2241C98.5309 56.8973 99.2118 58.0521 99.7518 58.6884C100.292 59.3248 100.855 59.6428 101.442 59.6428ZM84.5387 48.5079H89.8562L87.039 42.9227L84.5387 48.5079ZM109.042 57.2038C109.042 57.9343 109.101 58.4646 109.218 58.7945C109.336 59.1244 109.559 59.3482 109.887 59.4661C110.24 59.5839 110.791 59.6428 111.543 59.6428C111.613 59.6428 111.648 59.7136 111.648 59.8549C111.648 59.9963 111.613 60.067 111.543 60.067C110.768 60.067 110.157 60.0553 109.711 60.0317L107.035 59.9963L104.429 60.0317C103.959 60.0553 103.326 60.067 102.527 60.067C102.481 60.067 102.457 59.9963 102.457 59.8549C102.457 59.7136 102.481 59.6428 102.527 59.6428C103.279 59.6428 103.83 59.5839 104.183 59.4661C104.535 59.3482 104.769 59.1244 104.887 58.7945C105.028 58.441 105.098 57.9107 105.098 57.2038V40.8371C105.098 40.1302 105.028 39.6116 104.887 39.2817C104.769 38.9518 104.535 38.728 104.183 38.6102C103.83 38.4687 103.279 38.3981 102.527 38.3981C102.481 38.3981 102.457 38.3275 102.457 38.186C102.457 38.0446 102.481 37.9739 102.527 37.9739L104.429 38.0093C105.509 38.0563 106.378 38.0799 107.035 38.0799C107.763 38.0799 108.667 38.0563 109.747 38.0093L111.543 37.9739C111.613 37.9739 111.648 38.0446 111.648 38.186C111.648 38.3275 111.613 38.3981 111.543 38.3981C110.815 38.3981 110.275 38.4687 109.923 38.6102C109.571 38.7516 109.336 38.999 109.218 39.3525C109.101 39.6825 109.042 40.2008 109.042 40.9079V57.2038ZM151.625 58.1016C151.719 58.1016 151.778 58.1606 151.801 58.2782C151.848 58.3726 151.824 58.4433 151.73 58.4905L148.103 60.2224C148.009 60.2696 147.892 60.2932 147.751 60.2932C147.399 60.2932 147.047 60.1165 146.695 59.7629C146.366 59.4094 146.131 58.9263 145.99 58.3137L144.37 59.1973C143.76 59.5036 143.126 59.7629 142.469 59.975C141.811 60.1635 141.225 60.2579 140.708 60.2579C139.957 60.2579 139.358 60.0693 138.912 59.6923C138.49 59.2916 138.278 58.726 138.278 57.9955C138.278 57.4535 138.407 57.0175 138.666 56.6875C138.947 56.3576 139.335 56.0866 139.828 55.8745C140.344 55.6389 141.154 55.3325 142.257 54.9554L145.85 53.7889V50.9964C145.85 49.5825 145.709 48.5455 145.427 47.8857C145.145 47.2022 144.687 46.8606 144.054 46.8606C143.49 46.8606 143.044 47.0727 142.715 47.4968C142.387 47.921 142.187 48.6161 142.117 49.5825C141.976 50.9022 141.283 51.562 140.039 51.562C138.936 51.562 138.384 51.0789 138.384 50.1126C138.384 49.4764 138.783 48.8401 139.581 48.2039C140.379 47.5675 141.342 47.0491 142.469 46.6485C143.596 46.2478 144.582 46.0476 145.427 46.0476C146.53 46.0476 147.423 46.3775 148.103 47.0374C148.808 47.6972 149.16 48.6634 149.16 49.936V56.1928C149.16 56.8762 149.277 57.4063 149.512 57.7834C149.77 58.1606 150.122 58.349 150.568 58.349C150.897 58.349 151.238 58.2665 151.59 58.1016H151.625ZM145.885 57.7481C145.861 57.5831 145.85 57.3357 145.85 57.0057V54.3898L143.913 55.0969C143.279 55.3325 142.821 55.5918 142.539 55.8745C142.281 56.1574 142.152 56.4991 142.152 56.8996C142.152 57.3946 142.293 57.7834 142.574 58.0661C142.856 58.349 143.208 58.4905 143.631 58.4905C144.147 58.4905 144.746 58.3254 145.427 57.9955L145.885 57.7481ZM162.621 34.4033C163.935 34.4033 164.957 34.592 165.684 34.9689C166.412 35.3224 166.776 35.8291 166.776 36.489C166.776 37.031 166.588 37.4551 166.213 37.7616C165.86 38.0679 165.45 38.2211 164.98 38.2211C164.417 38.2211 164.006 38.0915 163.748 37.8322C163.489 37.573 163.254 37.196 163.043 36.701C162.832 36.2063 162.609 35.8408 162.374 35.6053C162.139 35.3461 161.764 35.2165 161.247 35.2165C160.167 35.2165 159.31 35.9706 158.677 37.4787C158.066 38.9871 157.761 41.3435 157.761 44.5487V46.7049C158.489 46.6813 159.78 46.5752 161.635 46.3867C161.705 46.3867 161.764 46.4809 161.811 46.6694C161.858 46.8345 161.881 47.0229 161.881 47.235C161.881 47.4707 161.834 47.7064 161.74 47.9421C161.67 48.1541 161.599 48.2484 161.529 48.2248C160.402 47.9421 159.146 47.7653 157.761 47.6947V57.2036C157.761 57.934 157.831 58.4643 157.972 58.7943C158.113 59.1242 158.395 59.348 158.817 59.4658C159.263 59.5836 159.956 59.6426 160.895 59.6426C160.989 59.6426 161.036 59.7134 161.036 59.8546C161.036 59.9961 160.989 60.0667 160.895 60.0667L158.465 60.0314C157.925 60.0078 157.127 59.9961 156.07 59.9961L153.922 60.0314C153.547 60.055 153.019 60.0667 152.338 60.0667C152.244 60.0667 152.197 59.9961 152.197 59.8546C152.197 59.7134 152.244 59.6426 152.338 59.6426C152.948 59.6426 153.394 59.5836 153.676 59.4658C153.981 59.348 154.181 59.1242 154.275 58.7943C154.392 58.4407 154.451 57.9104 154.451 57.2036V49.25C154.451 48.5194 154.298 48.0482 153.993 47.8359C153.688 47.6004 153.089 47.4826 152.197 47.4826C152.126 47.4826 152.091 47.3765 152.091 47.1644C152.091 46.9523 152.126 46.8462 152.197 46.8462C153.019 46.8462 153.582 46.7402 153.887 46.5282C154.192 46.2925 154.357 45.88 154.38 45.2908C154.498 41.4496 155.225 38.6805 156.564 36.9839C157.902 35.2635 159.921 34.4033 162.621 34.4033ZM175.428 57.7337C175.475 57.7337 175.522 57.7809 175.569 57.8751C175.639 57.9694 175.651 58.0402 175.604 58.0872C174.735 58.9357 173.855 59.5483 172.963 59.9255C172.071 60.3024 171.096 60.4911 170.04 60.4911C168.561 60.4911 167.281 60.1846 166.202 59.5719C165.122 58.9357 164.3 58.0991 163.736 57.0621C163.173 56.0016 162.891 54.8706 162.891 53.6685C162.891 52.3018 163.244 51.0411 163.948 49.8863C164.652 48.708 165.615 47.7889 166.835 47.1291C168.056 46.4456 169.418 46.104 170.92 46.104C172.376 46.104 173.491 46.422 174.266 47.0583C175.041 47.6711 175.428 48.5194 175.428 49.6036C175.428 50.2868 175.299 50.6286 175.041 50.6286H172.893L166.554 50.6993C166.483 51.147 166.448 51.642 166.448 52.184C166.448 54.2107 166.918 55.8131 167.857 56.9915C168.819 58.1697 170.134 58.7589 171.801 58.7589C172.388 58.7589 172.998 58.6764 173.632 58.5114C174.266 58.3465 174.841 58.0991 175.358 57.7692L175.428 57.7337ZM169.618 46.8109C168.913 46.8109 168.303 47.0938 167.786 47.6594C167.27 48.2248 166.894 49.0024 166.659 49.9924L171.66 49.8863C171.59 47.8359 170.909 46.8109 169.618 46.8109Z" fill="#101828"/>
<path d="M204 46.634C204 46.4927 203.977 46.4219 203.93 46.4219C203.343 46.4219 202.909 46.4338 202.627 46.4572L201.218 46.4927L199.105 46.4572C198.777 46.4338 198.295 46.4219 197.661 46.4219C197.614 46.4219 197.591 46.4927 197.591 46.634C197.591 46.7754 197.614 46.846 197.661 46.846C198.366 46.846 198.906 47.0347 199.281 47.4116C199.657 47.7652 199.845 48.2718 199.845 48.9317C199.845 49.4267 199.739 49.9804 199.528 50.5932L197.415 56.7438L193.259 48.2246C193.119 47.9419 193.048 47.7062 193.048 47.5178C193.048 47.2821 193.189 47.117 193.471 47.0228C193.752 46.9049 194.198 46.846 194.809 46.846C194.879 46.846 194.914 46.7754 194.914 46.634C194.914 46.4927 194.879 46.4219 194.809 46.4219C194.175 46.4219 193.67 46.4338 193.295 46.4572L190.865 46.4927L189.386 46.4572C189.034 46.4338 188.529 46.4219 187.871 46.4219C187.801 46.4219 187.766 46.4927 187.766 46.634C187.766 46.7754 187.801 46.846 187.871 46.846C188.294 46.846 188.646 47.0111 188.928 47.341C189.233 47.6709 189.644 48.3425 190.16 49.3558L195.795 60.7736C195.138 62.5411 194.574 63.896 194.105 64.8388C193.635 65.8049 193.177 66.4884 192.731 66.8889C192.309 67.3133 191.827 67.5253 191.287 67.5253C190.888 67.5253 190.466 67.3722 190.02 67.0657C189.761 66.9008 189.538 66.783 189.351 66.7123C189.186 66.6415 188.975 66.6062 188.717 66.6062C188.247 66.6062 187.848 66.7477 187.519 67.0304C187.191 67.3133 187.026 67.7255 187.026 68.2677C187.026 68.8331 187.214 69.2575 187.59 69.5402C187.965 69.8465 188.505 69.9996 189.21 69.9996C190.595 69.9996 191.851 69.3281 192.978 67.9848C194.128 66.6651 195.325 64.3557 196.57 61.0563L200.479 50.6285C200.925 49.403 201.418 48.4722 201.958 47.8358C202.521 47.1759 203.179 46.846 203.93 46.846C203.977 46.846 204 46.7754 204 46.634Z" fill="#101828"/>
<path d="M187.345 57.7336C187.298 57.6393 187.228 57.5923 187.134 57.5923L187.063 57.6276C186.171 58.3345 185.256 58.688 184.317 58.688C183.565 58.688 182.955 58.4759 182.485 58.0518C182.039 57.6276 181.816 56.9678 181.816 56.0723V47.6946C183.248 47.7182 184.727 47.8947 186.253 48.2247C186.347 48.2483 186.429 48.154 186.5 47.942C186.594 47.7063 186.641 47.4706 186.641 47.2349C186.641 47.0228 186.606 46.8344 186.535 46.6693C186.488 46.4808 186.441 46.3866 186.394 46.3866C184.704 46.5751 183.178 46.6812 181.816 46.7048V43.8768C181.816 43.7826 181.734 43.7354 181.57 43.7354C181.429 43.7354 181.335 43.7826 181.288 43.8768C180.889 44.8429 180.314 45.5617 179.563 46.0331C178.835 46.5044 177.872 46.7637 176.675 46.8108C176.628 46.8108 176.593 46.8461 176.569 46.9169C176.546 46.9639 176.534 47.0347 176.534 47.129C176.534 47.1996 176.546 47.2704 176.569 47.341C176.616 47.4117 176.651 47.447 176.675 47.447C177.356 47.447 177.825 47.5884 178.083 47.8713C178.342 48.154 178.471 48.6607 178.471 49.3912V57.2388C178.471 58.417 178.835 59.2536 179.563 59.7486C180.29 60.2434 181.171 60.491 182.204 60.491C183.119 60.491 183.988 60.2906 184.81 59.8898C185.631 59.4657 186.476 58.8178 187.345 57.9456C187.415 57.8986 187.415 57.828 187.345 57.7336Z" fill="#101828"/>
<path d="M126.623 43.8064C126.201 43.1466 125.989 42.3923 125.989 41.544C125.989 40.507 126.283 39.7176 126.87 39.1756C127.48 38.6336 128.255 38.3626 129.194 38.3626C130.603 38.3626 131.694 38.881 132.469 39.918C133.267 40.9548 133.96 42.2157 134.547 43.7003L134.828 44.372C134.852 44.4426 134.922 44.4662 135.04 44.4426C135.157 44.3954 135.216 44.3365 135.216 44.2659V39.0695C135.216 38.9046 135.18 38.7751 135.11 38.6807C135.04 38.5628 134.899 38.4569 134.688 38.3626C134.171 38.1506 133.49 37.9738 132.645 37.8324C131.8 37.6673 130.966 37.585 130.145 37.585C128.9 37.585 127.715 37.797 126.588 38.2212C125.461 38.6217 124.534 39.2582 123.806 40.1301C123.102 40.9784 122.749 42.0271 122.749 43.2761C122.749 44.2659 122.973 45.1261 123.419 45.8565C123.865 46.5872 124.393 47.2117 125.003 47.7301C125.637 48.2485 126.518 48.873 127.644 49.6037C128.795 50.3577 129.699 51.0057 130.356 51.5479C131.013 52.0899 131.565 52.7497 132.011 53.5274C132.481 54.3051 132.715 55.2123 132.715 56.2493C132.715 57.4747 132.41 58.3466 131.8 58.865C131.189 59.36 130.415 59.6074 129.476 59.6074C128.443 59.6074 127.515 59.2657 126.694 58.5823C125.895 57.8988 125.226 57.1093 124.686 56.2139C124.17 55.3184 123.559 54.1519 122.855 52.7144C122.832 52.6199 122.761 52.5846 122.644 52.6082C122.526 52.6082 122.468 52.6555 122.468 52.7497V52.785L122.573 58.4055C122.573 58.594 122.597 58.7354 122.644 58.8297C122.714 58.9003 122.808 58.9828 122.926 59.0771C123.325 59.4306 124.099 59.7605 125.25 60.0668C126.4 60.3497 127.504 60.4912 128.56 60.4912C129.992 60.4912 131.283 60.2319 132.434 59.7135C133.608 59.1713 134.523 58.4291 135.18 57.4864C135.838 56.5202 136.167 55.4244 136.167 54.1989C136.167 53.1385 135.92 52.2077 135.427 51.4064C134.934 50.5815 134.335 49.8864 133.631 49.3208C132.927 48.7552 131.988 48.0953 130.814 47.3413C129.734 46.6342 128.877 46.0333 128.243 45.5385C127.609 45.0435 127.069 44.4662 126.623 43.8064Z" fill="#101828"/>
<defs>
<clipPath id="clip0_1040_3809">
<rect width="68" height="68" fill="white" transform="translate(0 1)"/>
</clipPath>
</defs>
</svg>
